<?xml version="1.0" encoding="utf-8"?>
<!-- Generator: Adobe Illustrator 23.0.1, SVG Export Plug-In . SVG Version: 6.00 Build 0)  -->
<svg version="1.1" id="Ebene_1" focusable="false" xmlns="http://www.w3.org/2000/svg" xmlns:xlink="http://www.w3.org/1999/xlink"
	 x="0px" y="0px" viewBox="0 0 20 20" style="enable-background:new 0 0 20 20;" xml:space="preserve">
<path d="M12.6,14.1H6.9v-1h5.7V14.1z M12.6,15.6H6.9v1h5.7V15.6z M19.4,8.1v4.1c0,0.9-0.8,1.7-1.7,1.7h-2.1v5.3H3.8v-5.3H2.3
	c-0.9,0-1.7-0.8-1.7-1.7V8.1c0-0.9,0.8-1.7,1.7-1.7h1.5V0.8h11.7v5.6h2.1C18.6,6.4,19.4,7.1,19.4,8.1z M5.8,6.4h7.7V2.8H5.8V6.4z
	 M13.6,11.6H5.8v5.9h7.7L13.6,11.6L13.6,11.6z M17.2,9c0-0.6-0.5-1.2-1.1-1.2S14.9,8.4,14.9,9s0.5,1.1,1.1,1.1S17.2,9.7,17.2,9z"/>
</svg>
